<?xml version="1.0" encoding="utf-8"?>
<!-- Generator: Adobe Illustrator 24.0.2, SVG Export Plug-In . SVG Version: 6.00 Build 0)  -->
<svg version="1.1" id="Layer_1" xmlns="http://www.w3.org/2000/svg" xmlns:xlink="http://www.w3.org/1999/xlink" x="0px" y="0px"
	 viewBox="0 0 200 87.21" style="enable-background:new 0 0 200 87.21;" xml:space="preserve">
<style type="text/css">
	.st0{fill:#575756;}
	.st1{fill:url(#SVGID_1_);}
	.st2{fill:url(#SVGID_2_);}
	.st3{fill:url(#SVGID_3_);}
	.st4{fill:url(#SVGID_4_);}
</style>
<g>
	<path class="st0" d="M112.39,39.31v-3.39h-3.36V8.83h3.36V5.47h13.64v3.36h3.36v27.09h-3.36v3.39H112.39z M109.03,35.92h3.36v3.39
		h-3.36V35.92z M109.22,5.58h3.17v3.25h-3.17V5.58z M115.94,32.37h6.54V12.38h-6.54V32.37z M126.03,5.47h3.36v3.36h-3.36V5.47z
		 M126.03,35.92h3.36v3.28h-3.36V35.92z"/>
	<path class="st0" d="M139.48,39.31h-6.91V5.47h20.36v33.84h-6.91V12.38h-6.54V39.31z"/>
	<path class="st0" d="M169.74,39.31h-6.91V25.83h-6.72V5.47h6.91v13.45h6.54V5.47h6.91v20.36h-6.72V39.31z"/>
	<path class="st0" d="M186.55,39.31h-6.91V25.64H183v-6.54h-3.36V5.47h6.91v13.45h6.54V5.47H200v13.64h-3.36v6.54H200v13.66h-6.91
		V25.83h-6.54V39.31z M179.83,22.39H183v3.25h-3.17V22.39z M196.64,22.39H200v3.36h-3.36V22.39z"/>
	<path class="st0" d="M112.5,81.53v-3.51h-3.48V49.99h3.48v-3.48h14.12v3.48h3.48v10.64h-7.15v-6.96h-6.77v20.69h6.77v-6.96h7.15
		v10.64h-3.48v3.51H112.5z M109.02,78.02h3.48v3.51h-3.48V78.02z M109.22,46.62h3.29v3.37h-3.29V46.62z M126.62,46.62h3.48v3.37
		h-3.48V46.62z M126.62,77.94h3.48v3.48h-3.48V77.94z"/>
	<path class="st0" d="M136.87,81.53v-3.51h-3.48V49.99h3.48v-3.48h14.12v3.48h3.48v28.04h-3.48v3.51H136.87z M133.38,78.02h3.48
		v3.51h-3.48V78.02z M133.58,46.62h3.29v3.37h-3.29V46.62z M140.54,74.35h6.77V53.66h-6.77V74.35z M150.98,46.51h3.48v3.48h-3.48
		V46.51z M150.98,78.02h3.48v3.4h-3.48V78.02z"/>
	<path class="st0" d="M157.74,81.53V46.51h17.6v3.48h3.48v28.04h-3.48v3.51H157.74z M164.9,74.35h6.77V53.66h-6.77V74.35z"/>
	<path class="st0" d="M199.7,81.53h-17.6V46.51h17.6v7.15h-10.44v6.77h10.44v7.15h-10.44v6.77h10.44V81.53z"/>
</g>
<g>
	<g>
		<linearGradient id="SVGID_1_" gradientUnits="userSpaceOnUse" x1="11.9069" y1="69.9532" x2="11.9069" y2="39.14">
			<stop  offset="0" style="stop-color:#77CBE8"/>
			<stop  offset="1" style="stop-color:#3369B1"/>
		</linearGradient>
		<path class="st1" d="M17.03,68.68V55.41c0-9.39-7.64-17.03-17.03-17.03v10.24c3.74,0,6.79,3.04,6.79,6.79v13.27
			c0,9.39,7.64,17.03,17.03,17.03V75.47C20.07,75.47,17.03,72.42,17.03,68.68z"/>
		<g>
			<linearGradient id="SVGID_2_" gradientUnits="userSpaceOnUse" x1="9.8691" y1="43.9268" x2="15.6302" y2="-9.7153">
				<stop  offset="0" style="stop-color:#77CBE8"/>
				<stop  offset="1" style="stop-color:#3369B1"/>
			</linearGradient>
			<path class="st2" d="M0,48.61V38.37c3.74,0,6.79-3.04,6.79-6.79V18.32c0-9.39,7.64-17.03,17.03-17.03v10.24
				c-3.74,0-6.79,3.04-6.79,6.79v13.27C17.03,40.98,9.39,48.61,0,48.61z"/>
		</g>
	</g>
	<g>
		
			<linearGradient id="SVGID_3_" gradientUnits="userSpaceOnUse" x1="8034.856" y1="2979.3088" x2="8034.856" y2="2948.4954" gradientTransform="matrix(-1 0 0 -1 8112.5625 2996.3555)">
			<stop  offset="0" style="stop-color:#FFE025"/>
			<stop  offset="1" style="stop-color:#EE751D"/>
		</linearGradient>
		<path class="st3" d="M72.59,18.32v13.27c0,9.39,7.64,17.03,17.03,17.03V38.37c-3.74,0-6.79-3.04-6.79-6.79V18.32
			c0-9.39-7.64-17.03-17.03-17.03v10.24C69.54,11.53,72.59,14.58,72.59,18.32z"/>
		<g>
			
				<linearGradient id="SVGID_4_" gradientUnits="userSpaceOnUse" x1="8032.8184" y1="2953.2822" x2="8038.5796" y2="2899.6401" gradientTransform="matrix(-1 0 0 -1 8112.5625 2996.3555)">
				<stop  offset="0" style="stop-color:#FFE025"/>
				<stop  offset="1" style="stop-color:#EE751D"/>
			</linearGradient>
			<path class="st4" d="M89.61,38.39v10.24c-3.74,0-6.79,3.04-6.79,6.79v13.27c0,9.39-7.64,17.03-17.03,17.03V75.47
				c3.74,0,6.79-3.04,6.79-6.79V55.41C72.59,46.02,80.22,38.39,89.61,38.39z"/>
		</g>
	</g>
	<g>
		<g>
			<g>
				<path class="st0" d="M40.91,37.34c0,4.24-2.56,7.79-7.69,7.79c-5.04,0-7.48-3.53-7.48-7.77c0-4.31,2.67-7.78,7.71-7.78
					C38.17,29.57,40.91,32.85,40.91,37.34z M30.26,37.29c0,2.75,0.91,4.67,3.09,4.67c2.28,0,3.04-2.03,3.04-4.59
					c0-2.74-0.8-4.63-3.1-4.63C31.16,32.74,30.26,34.5,30.26,37.29z"/>
			</g>
			<g>
				<path class="st0" d="M58.44,44.85l-2.52-4.88h-0.04l-2.57,4.88h-4.69l4.67-7.47l-4.57-7.52h5.08l2.34,4.63h0.06l2.41-4.63h4.62
					l-4.56,7.07l4.84,7.92H58.44z"/>
			</g>
		</g>
		<path class="st0" d="M54.41,57.43H33.94V52.5h20.47V57.43z"/>
	</g>
</g>
</svg>
